<mxfile host="app.diagrams.net" modified="2023-01-04T17:08:17.358Z" agent="5.0 (X11; Linux x86_64) AppleWebKit/537.36 (KHTML, like Gecko) Chrome/108.0.0.0 Safari/537.36" etag="zoTALCUX6AeKv2y7Hjv4" version="20.7.4" type="github">
  <diagram id="C5RBs43oDa-KdzZeNtuy" name="Page-1">
    <mxGraphModel dx="1640" dy="1598" grid="1" gridSize="10" guides="1" tooltips="1" connect="1" arrows="1" fold="1" page="1" pageScale="1" pageWidth="827" pageHeight="1169" math="0" shadow="0">
      <root>
        <mxCell id="WIyWlLk6GJQsqaUBKTNV-0" />
        <mxCell id="WIyWlLk6GJQsqaUBKTNV-1" parent="WIyWlLk6GJQsqaUBKTNV-0" />
        <mxCell id="MhJyDKK-E_zmOzIPx0ev-69" style="edgeStyle=orthogonalEdgeStyle;rounded=0;orthogonalLoop=1;jettySize=auto;html=1;entryX=0.504;entryY=1.017;entryDx=0;entryDy=0;entryPerimeter=0;startArrow=none;startFill=0;" parent="WIyWlLk6GJQsqaUBKTNV-1" source="MhJyDKK-E_zmOzIPx0ev-3" target="MhJyDKK-E_zmOzIPx0ev-68" edge="1">
          <mxGeometry relative="1" as="geometry" />
        </mxCell>
        <mxCell id="MhJyDKK-E_zmOzIPx0ev-3" value="Order" style="swimlane;fontStyle=1;align=center;verticalAlign=top;childLayout=stackLayout;horizontal=1;startSize=26;horizontalStack=0;resizeParent=1;resizeParentMax=0;resizeLast=0;collapsible=1;marginBottom=0;fillColor=#d5e8d4;strokeColor=#82b366;" parent="WIyWlLk6GJQsqaUBKTNV-1" vertex="1">
          <mxGeometry x="20" y="44" width="210" height="176" as="geometry" />
        </mxCell>
        <mxCell id="MhJyDKK-E_zmOzIPx0ev-4" value="+ id: Long&#xa;+ orderType: String&#xa;+ orderTiming: String&#xa;+ displayId: String&#xa;+ createdAt: Date&#xa;+ preparationStartDateTime: Date&#xa;+ salesChannel: String" style="text;strokeColor=none;fillColor=none;align=left;verticalAlign=middle;spacingLeft=4;spacingRight=4;overflow=hidden;rotatable=0;points=[[0,0.5],[1,0.5]];portConstraint=eastwest;strokeWidth=1;spacing=2;spacingBottom=0;spacingTop=0;horizontal=1;" parent="MhJyDKK-E_zmOzIPx0ev-3" vertex="1">
          <mxGeometry y="26" width="210" height="114" as="geometry" />
        </mxCell>
        <mxCell id="MhJyDKK-E_zmOzIPx0ev-5" value="" style="line;strokeWidth=1;fillColor=none;align=left;verticalAlign=middle;spacingTop=-1;spacingLeft=3;spacingRight=3;rotatable=0;labelPosition=right;points=[];portConstraint=eastwest;strokeColor=inherit;" parent="MhJyDKK-E_zmOzIPx0ev-3" vertex="1">
          <mxGeometry y="140" width="210" height="10" as="geometry" />
        </mxCell>
        <mxCell id="MhJyDKK-E_zmOzIPx0ev-6" value="+ method(type): type" style="text;strokeColor=none;fillColor=none;align=left;verticalAlign=top;spacingLeft=4;spacingRight=4;overflow=hidden;rotatable=0;points=[[0,0.5],[1,0.5]];portConstraint=eastwest;" parent="MhJyDKK-E_zmOzIPx0ev-3" vertex="1">
          <mxGeometry y="150" width="210" height="26" as="geometry" />
        </mxCell>
        <mxCell id="MhJyDKK-E_zmOzIPx0ev-8" value="Delivery" style="swimlane;fontStyle=1;align=center;verticalAlign=top;childLayout=stackLayout;horizontal=1;startSize=26;horizontalStack=0;resizeParent=1;resizeParentMax=0;resizeLast=0;collapsible=1;marginBottom=0;fillColor=#d5e8d4;strokeColor=#82b366;" parent="WIyWlLk6GJQsqaUBKTNV-1" vertex="1">
          <mxGeometry x="370" y="60" width="210" height="106" as="geometry" />
        </mxCell>
        <mxCell id="MhJyDKK-E_zmOzIPx0ev-9" value="+ mode: String&#xa;+ deliveredBy: String&#xa;+ deliveryDateTime: Date" style="text;strokeColor=none;fillColor=none;align=left;verticalAlign=middle;spacingLeft=4;spacingRight=4;overflow=hidden;rotatable=0;points=[[0,0.5],[1,0.5]];portConstraint=eastwest;strokeWidth=1;spacing=2;spacingBottom=0;spacingTop=0;horizontal=1;" parent="MhJyDKK-E_zmOzIPx0ev-8" vertex="1">
          <mxGeometry y="26" width="210" height="44" as="geometry" />
        </mxCell>
        <mxCell id="MhJyDKK-E_zmOzIPx0ev-10" value="" style="line;strokeWidth=1;fillColor=none;align=left;verticalAlign=middle;spacingTop=-1;spacingLeft=3;spacingRight=3;rotatable=0;labelPosition=right;points=[];portConstraint=eastwest;strokeColor=inherit;" parent="MhJyDKK-E_zmOzIPx0ev-8" vertex="1">
          <mxGeometry y="70" width="210" height="10" as="geometry" />
        </mxCell>
        <mxCell id="MhJyDKK-E_zmOzIPx0ev-11" value="+ method(type): type" style="text;strokeColor=none;fillColor=none;align=left;verticalAlign=top;spacingLeft=4;spacingRight=4;overflow=hidden;rotatable=0;points=[[0,0.5],[1,0.5]];portConstraint=eastwest;" parent="MhJyDKK-E_zmOzIPx0ev-8" vertex="1">
          <mxGeometry y="80" width="210" height="26" as="geometry" />
        </mxCell>
        <mxCell id="MhJyDKK-E_zmOzIPx0ev-14" value="" style="endArrow=open;html=1;endSize=12;startArrow=none;startSize=14;startFill=0;edgeStyle=orthogonalEdgeStyle;rounded=0;exitX=1.005;exitY=0.281;exitDx=0;exitDy=0;exitPerimeter=0;entryX=-0.005;entryY=0.343;entryDx=0;entryDy=0;entryPerimeter=0;" parent="WIyWlLk6GJQsqaUBKTNV-1" source="MhJyDKK-E_zmOzIPx0ev-4" target="MhJyDKK-E_zmOzIPx0ev-9" edge="1">
          <mxGeometry relative="1" as="geometry">
            <mxPoint x="254" y="110" as="sourcePoint" />
            <mxPoint x="414" y="110" as="targetPoint" />
            <Array as="points">
              <mxPoint x="300" y="102" />
            </Array>
          </mxGeometry>
        </mxCell>
        <mxCell id="MhJyDKK-E_zmOzIPx0ev-16" value="0...1" style="edgeLabel;resizable=0;html=1;align=right;verticalAlign=top;strokeWidth=1;" parent="MhJyDKK-E_zmOzIPx0ev-14" connectable="0" vertex="1">
          <mxGeometry x="1" relative="1" as="geometry" />
        </mxCell>
        <mxCell id="MhJyDKK-E_zmOzIPx0ev-17" value="DeliveryAddress" style="swimlane;fontStyle=1;align=center;verticalAlign=top;childLayout=stackLayout;horizontal=1;startSize=26;horizontalStack=0;resizeParent=1;resizeParentMax=0;resizeLast=0;collapsible=1;marginBottom=0;fillColor=#d5e8d4;strokeColor=#82b366;" parent="WIyWlLk6GJQsqaUBKTNV-1" vertex="1">
          <mxGeometry x="710" y="15" width="210" height="196" as="geometry" />
        </mxCell>
        <mxCell id="MhJyDKK-E_zmOzIPx0ev-18" value="+ streetName: String&#xa;+ streetNumber: String&#xa;+ formattedAddress: String&#xa;+ neighborhood: String&#xa;+ postalCode: String&#xa;+ city: String&#xa;+ state: String&#xa;+ country: String&#xa;+ reference: String" style="text;strokeColor=none;fillColor=none;align=left;verticalAlign=middle;spacingLeft=4;spacingRight=4;overflow=hidden;rotatable=0;points=[[0,0.5],[1,0.5]];portConstraint=eastwest;strokeWidth=1;spacing=2;spacingBottom=0;spacingTop=0;horizontal=1;" parent="MhJyDKK-E_zmOzIPx0ev-17" vertex="1">
          <mxGeometry y="26" width="210" height="134" as="geometry" />
        </mxCell>
        <mxCell id="MhJyDKK-E_zmOzIPx0ev-19" value="" style="line;strokeWidth=1;fillColor=none;align=left;verticalAlign=middle;spacingTop=-1;spacingLeft=3;spacingRight=3;rotatable=0;labelPosition=right;points=[];portConstraint=eastwest;strokeColor=inherit;" parent="MhJyDKK-E_zmOzIPx0ev-17" vertex="1">
          <mxGeometry y="160" width="210" height="10" as="geometry" />
        </mxCell>
        <mxCell id="MhJyDKK-E_zmOzIPx0ev-20" value="+ method(type): type" style="text;strokeColor=none;fillColor=none;align=left;verticalAlign=top;spacingLeft=4;spacingRight=4;overflow=hidden;rotatable=0;points=[[0,0.5],[1,0.5]];portConstraint=eastwest;" parent="MhJyDKK-E_zmOzIPx0ev-17" vertex="1">
          <mxGeometry y="170" width="210" height="26" as="geometry" />
        </mxCell>
        <mxCell id="MhJyDKK-E_zmOzIPx0ev-21" value="" style="endArrow=open;html=1;endSize=12;startArrow=none;startSize=14;startFill=0;edgeStyle=orthogonalEdgeStyle;rounded=0;exitX=1;exitY=0.5;exitDx=0;exitDy=0;entryX=0;entryY=0.5;entryDx=0;entryDy=0;" parent="WIyWlLk6GJQsqaUBKTNV-1" source="MhJyDKK-E_zmOzIPx0ev-9" target="MhJyDKK-E_zmOzIPx0ev-18" edge="1">
          <mxGeometry relative="1" as="geometry">
            <mxPoint x="560" y="200.274" as="sourcePoint" />
            <mxPoint x="697.69" y="200" as="targetPoint" />
          </mxGeometry>
        </mxCell>
        <mxCell id="MhJyDKK-E_zmOzIPx0ev-22" value="0...1" style="edgeLabel;resizable=0;html=1;align=right;verticalAlign=top;strokeWidth=1;" parent="MhJyDKK-E_zmOzIPx0ev-21" connectable="0" vertex="1">
          <mxGeometry x="1" relative="1" as="geometry" />
        </mxCell>
        <mxCell id="MhJyDKK-E_zmOzIPx0ev-23" value="Coordinates" style="swimlane;fontStyle=1;align=center;verticalAlign=top;childLayout=stackLayout;horizontal=1;startSize=26;horizontalStack=0;resizeParent=1;resizeParentMax=0;resizeLast=0;collapsible=1;marginBottom=0;" parent="WIyWlLk6GJQsqaUBKTNV-1" vertex="1">
          <mxGeometry x="1060" y="65" width="210" height="96" as="geometry" />
        </mxCell>
        <mxCell id="MhJyDKK-E_zmOzIPx0ev-24" value="+ latitude: Double&#xa;+ longitude: Double" style="text;strokeColor=none;fillColor=none;align=left;verticalAlign=middle;spacingLeft=4;spacingRight=4;overflow=hidden;rotatable=0;points=[[0,0.5],[1,0.5]];portConstraint=eastwest;strokeWidth=1;spacing=2;spacingBottom=0;spacingTop=0;horizontal=1;" parent="MhJyDKK-E_zmOzIPx0ev-23" vertex="1">
          <mxGeometry y="26" width="210" height="34" as="geometry" />
        </mxCell>
        <mxCell id="MhJyDKK-E_zmOzIPx0ev-25" value="" style="line;strokeWidth=1;fillColor=none;align=left;verticalAlign=middle;spacingTop=-1;spacingLeft=3;spacingRight=3;rotatable=0;labelPosition=right;points=[];portConstraint=eastwest;strokeColor=inherit;" parent="MhJyDKK-E_zmOzIPx0ev-23" vertex="1">
          <mxGeometry y="60" width="210" height="10" as="geometry" />
        </mxCell>
        <mxCell id="MhJyDKK-E_zmOzIPx0ev-26" value="+ method(type): type" style="text;strokeColor=none;fillColor=none;align=left;verticalAlign=top;spacingLeft=4;spacingRight=4;overflow=hidden;rotatable=0;points=[[0,0.5],[1,0.5]];portConstraint=eastwest;" parent="MhJyDKK-E_zmOzIPx0ev-23" vertex="1">
          <mxGeometry y="70" width="210" height="26" as="geometry" />
        </mxCell>
        <mxCell id="MhJyDKK-E_zmOzIPx0ev-27" value="" style="endArrow=open;html=1;endSize=12;startArrow=none;startSize=14;startFill=0;edgeStyle=orthogonalEdgeStyle;rounded=0;exitX=1;exitY=0.5;exitDx=0;exitDy=0;entryX=0;entryY=0.5;entryDx=0;entryDy=0;" parent="WIyWlLk6GJQsqaUBKTNV-1" source="MhJyDKK-E_zmOzIPx0ev-18" target="MhJyDKK-E_zmOzIPx0ev-24" edge="1">
          <mxGeometry relative="1" as="geometry">
            <mxPoint x="950" y="118" as="sourcePoint" />
            <mxPoint x="1080" y="118" as="targetPoint" />
          </mxGeometry>
        </mxCell>
        <mxCell id="MhJyDKK-E_zmOzIPx0ev-28" value="0...1" style="edgeLabel;resizable=0;html=1;align=right;verticalAlign=top;strokeWidth=1;" parent="MhJyDKK-E_zmOzIPx0ev-27" connectable="0" vertex="1">
          <mxGeometry x="1" relative="1" as="geometry" />
        </mxCell>
        <mxCell id="MhJyDKK-E_zmOzIPx0ev-29" value="Merchant" style="swimlane;fontStyle=1;align=center;verticalAlign=top;childLayout=stackLayout;horizontal=1;startSize=26;horizontalStack=0;resizeParent=1;resizeParentMax=0;resizeLast=0;collapsible=1;marginBottom=0;fillColor=#d5e8d4;strokeColor=#82b366;" parent="WIyWlLk6GJQsqaUBKTNV-1" vertex="1">
          <mxGeometry x="370" y="220" width="210" height="96" as="geometry" />
        </mxCell>
        <mxCell id="MhJyDKK-E_zmOzIPx0ev-30" value="+ id: Long&#xa;+ name: String" style="text;strokeColor=none;fillColor=none;align=left;verticalAlign=middle;spacingLeft=4;spacingRight=4;overflow=hidden;rotatable=0;points=[[0,0.5],[1,0.5]];portConstraint=eastwest;strokeWidth=1;spacing=2;spacingBottom=0;spacingTop=0;horizontal=1;" parent="MhJyDKK-E_zmOzIPx0ev-29" vertex="1">
          <mxGeometry y="26" width="210" height="34" as="geometry" />
        </mxCell>
        <mxCell id="MhJyDKK-E_zmOzIPx0ev-31" value="" style="line;strokeWidth=1;fillColor=none;align=left;verticalAlign=middle;spacingTop=-1;spacingLeft=3;spacingRight=3;rotatable=0;labelPosition=right;points=[];portConstraint=eastwest;strokeColor=inherit;" parent="MhJyDKK-E_zmOzIPx0ev-29" vertex="1">
          <mxGeometry y="60" width="210" height="10" as="geometry" />
        </mxCell>
        <mxCell id="MhJyDKK-E_zmOzIPx0ev-32" value="+ method(type): type" style="text;strokeColor=none;fillColor=none;align=left;verticalAlign=top;spacingLeft=4;spacingRight=4;overflow=hidden;rotatable=0;points=[[0,0.5],[1,0.5]];portConstraint=eastwest;" parent="MhJyDKK-E_zmOzIPx0ev-29" vertex="1">
          <mxGeometry y="70" width="210" height="26" as="geometry" />
        </mxCell>
        <mxCell id="MhJyDKK-E_zmOzIPx0ev-33" value="" style="endArrow=open;html=1;endSize=12;startArrow=none;startSize=14;startFill=0;edgeStyle=orthogonalEdgeStyle;rounded=0;exitX=0.996;exitY=0.909;exitDx=0;exitDy=0;exitPerimeter=0;entryX=-0.017;entryY=0.321;entryDx=0;entryDy=0;entryPerimeter=0;" parent="WIyWlLk6GJQsqaUBKTNV-1" source="MhJyDKK-E_zmOzIPx0ev-4" target="MhJyDKK-E_zmOzIPx0ev-30" edge="1">
          <mxGeometry relative="1" as="geometry">
            <mxPoint x="241.04999999999995" y="190.274" as="sourcePoint" />
            <mxPoint x="378.74" y="190" as="targetPoint" />
          </mxGeometry>
        </mxCell>
        <mxCell id="MhJyDKK-E_zmOzIPx0ev-34" value="0...1" style="edgeLabel;resizable=0;html=1;align=right;verticalAlign=top;strokeWidth=1;" parent="MhJyDKK-E_zmOzIPx0ev-33" connectable="0" vertex="1">
          <mxGeometry x="1" relative="1" as="geometry" />
        </mxCell>
        <mxCell id="MhJyDKK-E_zmOzIPx0ev-35" value="Customer" style="swimlane;fontStyle=1;align=center;verticalAlign=top;childLayout=stackLayout;horizontal=1;startSize=26;horizontalStack=0;resizeParent=1;resizeParentMax=0;resizeLast=0;collapsible=1;marginBottom=0;fillColor=#d5e8d4;strokeColor=#82b366;" parent="WIyWlLk6GJQsqaUBKTNV-1" vertex="1">
          <mxGeometry x="20" y="370" width="210" height="116" as="geometry" />
        </mxCell>
        <mxCell id="MhJyDKK-E_zmOzIPx0ev-36" value="+ id: Long&#xa;+ name: String&#xa;+ ordersCountOnMerchant: Long" style="text;strokeColor=none;fillColor=none;align=left;verticalAlign=middle;spacingLeft=4;spacingRight=4;overflow=hidden;rotatable=0;points=[[0,0.5],[1,0.5]];portConstraint=eastwest;strokeWidth=1;spacing=2;spacingBottom=0;spacingTop=0;horizontal=1;" parent="MhJyDKK-E_zmOzIPx0ev-35" vertex="1">
          <mxGeometry y="26" width="210" height="54" as="geometry" />
        </mxCell>
        <mxCell id="MhJyDKK-E_zmOzIPx0ev-37" value="" style="line;strokeWidth=1;fillColor=none;align=left;verticalAlign=middle;spacingTop=-1;spacingLeft=3;spacingRight=3;rotatable=0;labelPosition=right;points=[];portConstraint=eastwest;strokeColor=inherit;" parent="MhJyDKK-E_zmOzIPx0ev-35" vertex="1">
          <mxGeometry y="80" width="210" height="10" as="geometry" />
        </mxCell>
        <mxCell id="MhJyDKK-E_zmOzIPx0ev-38" value="+ method(type): type" style="text;strokeColor=none;fillColor=none;align=left;verticalAlign=top;spacingLeft=4;spacingRight=4;overflow=hidden;rotatable=0;points=[[0,0.5],[1,0.5]];portConstraint=eastwest;" parent="MhJyDKK-E_zmOzIPx0ev-35" vertex="1">
          <mxGeometry y="90" width="210" height="26" as="geometry" />
        </mxCell>
        <mxCell id="MhJyDKK-E_zmOzIPx0ev-39" value="Phone" style="swimlane;fontStyle=1;align=center;verticalAlign=top;childLayout=stackLayout;horizontal=1;startSize=26;horizontalStack=0;resizeParent=1;resizeParentMax=0;resizeLast=0;collapsible=1;marginBottom=0;fillColor=#d5e8d4;strokeColor=#82b366;" parent="WIyWlLk6GJQsqaUBKTNV-1" vertex="1">
          <mxGeometry x="20" y="570" width="210" height="116" as="geometry" />
        </mxCell>
        <mxCell id="MhJyDKK-E_zmOzIPx0ev-40" value="+ number: String&#xa;+ localizer: String&#xa;+ localizerExpiration: String" style="text;strokeColor=none;fillColor=none;align=left;verticalAlign=middle;spacingLeft=4;spacingRight=4;overflow=hidden;rotatable=0;points=[[0,0.5],[1,0.5]];portConstraint=eastwest;strokeWidth=1;spacing=2;spacingBottom=0;spacingTop=0;horizontal=1;" parent="MhJyDKK-E_zmOzIPx0ev-39" vertex="1">
          <mxGeometry y="26" width="210" height="54" as="geometry" />
        </mxCell>
        <mxCell id="MhJyDKK-E_zmOzIPx0ev-41" value="" style="line;strokeWidth=1;fillColor=none;align=left;verticalAlign=middle;spacingTop=-1;spacingLeft=3;spacingRight=3;rotatable=0;labelPosition=right;points=[];portConstraint=eastwest;strokeColor=inherit;" parent="MhJyDKK-E_zmOzIPx0ev-39" vertex="1">
          <mxGeometry y="80" width="210" height="10" as="geometry" />
        </mxCell>
        <mxCell id="MhJyDKK-E_zmOzIPx0ev-42" value="+ method(type): type" style="text;strokeColor=none;fillColor=none;align=left;verticalAlign=top;spacingLeft=4;spacingRight=4;overflow=hidden;rotatable=0;points=[[0,0.5],[1,0.5]];portConstraint=eastwest;" parent="MhJyDKK-E_zmOzIPx0ev-39" vertex="1">
          <mxGeometry y="90" width="210" height="26" as="geometry" />
        </mxCell>
        <mxCell id="MhJyDKK-E_zmOzIPx0ev-43" value="" style="endArrow=open;html=1;endSize=12;startArrow=none;startSize=14;startFill=0;edgeStyle=orthogonalEdgeStyle;rounded=0;exitX=0.546;exitY=1;exitDx=0;exitDy=0;exitPerimeter=0;entryX=0.55;entryY=-0.011;entryDx=0;entryDy=0;entryPerimeter=0;" parent="WIyWlLk6GJQsqaUBKTNV-1" source="MhJyDKK-E_zmOzIPx0ev-6" target="MhJyDKK-E_zmOzIPx0ev-35" edge="1">
          <mxGeometry relative="1" as="geometry">
            <mxPoint x="119.99999999999994" y="263.274" as="sourcePoint" />
            <mxPoint x="140" y="350" as="targetPoint" />
            <Array as="points">
              <mxPoint x="135" y="350" />
            </Array>
          </mxGeometry>
        </mxCell>
        <mxCell id="MhJyDKK-E_zmOzIPx0ev-44" value="0...1" style="edgeLabel;resizable=0;html=1;align=right;verticalAlign=top;strokeWidth=1;" parent="MhJyDKK-E_zmOzIPx0ev-43" connectable="0" vertex="1">
          <mxGeometry x="1" relative="1" as="geometry">
            <mxPoint y="-41" as="offset" />
          </mxGeometry>
        </mxCell>
        <mxCell id="MhJyDKK-E_zmOzIPx0ev-45" value="" style="endArrow=open;html=1;endSize=12;startArrow=none;startSize=14;startFill=0;edgeStyle=orthogonalEdgeStyle;rounded=0;exitX=0.568;exitY=1.14;exitDx=0;exitDy=0;exitPerimeter=0;entryX=0.568;entryY=-0.027;entryDx=0;entryDy=0;entryPerimeter=0;" parent="WIyWlLk6GJQsqaUBKTNV-1" source="MhJyDKK-E_zmOzIPx0ev-38" target="MhJyDKK-E_zmOzIPx0ev-39" edge="1">
          <mxGeometry relative="1" as="geometry">
            <mxPoint x="260" y="417.28" as="sourcePoint" />
            <mxPoint x="260.84000000000015" y="570.004" as="targetPoint" />
            <Array as="points">
              <mxPoint x="139" y="530" />
              <mxPoint x="139" y="530" />
            </Array>
          </mxGeometry>
        </mxCell>
        <mxCell id="MhJyDKK-E_zmOzIPx0ev-46" value="0...1" style="edgeLabel;resizable=0;html=1;align=right;verticalAlign=top;strokeWidth=1;" parent="MhJyDKK-E_zmOzIPx0ev-45" connectable="0" vertex="1">
          <mxGeometry x="1" relative="1" as="geometry">
            <mxPoint y="-41" as="offset" />
          </mxGeometry>
        </mxCell>
        <mxCell id="MhJyDKK-E_zmOzIPx0ev-47" value="Item" style="swimlane;fontStyle=1;align=center;verticalAlign=top;childLayout=stackLayout;horizontal=1;startSize=26;horizontalStack=0;resizeParent=1;resizeParentMax=0;resizeLast=0;collapsible=1;marginBottom=0;fillColor=#d5e8d4;strokeColor=#82b366;" parent="WIyWlLk6GJQsqaUBKTNV-1" vertex="1">
          <mxGeometry x="-350" y="50" width="210" height="206" as="geometry" />
        </mxCell>
        <mxCell id="MhJyDKK-E_zmOzIPx0ev-48" value="+ index: Long&#xa;+ id: String&#xa;+ uniqueId: String&#xa;+ name: &quot;String&#xa;+ unit: &quot;String&#xa;+ quantity: Long&#xa;+ unitPrice: Double&#xa;+ optionsPrice: Double&#xa;+ totalPrice: Double&#xa;+ price: Double" style="text;strokeColor=none;fillColor=none;align=left;verticalAlign=middle;spacingLeft=4;spacingRight=4;overflow=hidden;rotatable=0;points=[[0,0.5],[1,0.5]];portConstraint=eastwest;strokeWidth=1;spacing=2;spacingBottom=0;spacingTop=0;horizontal=1;" parent="MhJyDKK-E_zmOzIPx0ev-47" vertex="1">
          <mxGeometry y="26" width="210" height="144" as="geometry" />
        </mxCell>
        <mxCell id="MhJyDKK-E_zmOzIPx0ev-49" value="" style="line;strokeWidth=1;fillColor=none;align=left;verticalAlign=middle;spacingTop=-1;spacingLeft=3;spacingRight=3;rotatable=0;labelPosition=right;points=[];portConstraint=eastwest;strokeColor=inherit;" parent="MhJyDKK-E_zmOzIPx0ev-47" vertex="1">
          <mxGeometry y="170" width="210" height="10" as="geometry" />
        </mxCell>
        <mxCell id="MhJyDKK-E_zmOzIPx0ev-50" value="+ method(type): type" style="text;strokeColor=none;fillColor=none;align=left;verticalAlign=top;spacingLeft=4;spacingRight=4;overflow=hidden;rotatable=0;points=[[0,0.5],[1,0.5]];portConstraint=eastwest;" parent="MhJyDKK-E_zmOzIPx0ev-47" vertex="1">
          <mxGeometry y="180" width="210" height="26" as="geometry" />
        </mxCell>
        <mxCell id="MhJyDKK-E_zmOzIPx0ev-51" value="" style="endArrow=open;html=1;endSize=12;startArrow=none;startSize=14;startFill=0;edgeStyle=orthogonalEdgeStyle;rounded=0;exitX=0;exitY=0.5;exitDx=0;exitDy=0;" parent="WIyWlLk6GJQsqaUBKTNV-1" source="MhJyDKK-E_zmOzIPx0ev-4" edge="1">
          <mxGeometry relative="1" as="geometry">
            <mxPoint x="-250.00000000000006" y="270.94399999999985" as="sourcePoint" />
            <mxPoint x="-140" y="127" as="targetPoint" />
            <Array as="points">
              <mxPoint x="-70" y="127" />
              <mxPoint x="-70" y="127" />
            </Array>
          </mxGeometry>
        </mxCell>
        <mxCell id="MhJyDKK-E_zmOzIPx0ev-52" value="0...n" style="edgeLabel;resizable=0;html=1;align=right;verticalAlign=top;strokeWidth=1;" parent="MhJyDKK-E_zmOzIPx0ev-51" connectable="0" vertex="1">
          <mxGeometry x="1" relative="1" as="geometry">
            <mxPoint x="31" y="5" as="offset" />
          </mxGeometry>
        </mxCell>
        <mxCell id="MhJyDKK-E_zmOzIPx0ev-53" value="Options" style="swimlane;fontStyle=1;align=center;verticalAlign=top;childLayout=stackLayout;horizontal=1;startSize=26;horizontalStack=0;resizeParent=1;resizeParentMax=0;resizeLast=0;collapsible=1;marginBottom=0;fillColor=#d5e8d4;strokeColor=#82b366;" parent="WIyWlLk6GJQsqaUBKTNV-1" vertex="1">
          <mxGeometry x="-670" y="70" width="210" height="176" as="geometry" />
        </mxCell>
        <mxCell id="MhJyDKK-E_zmOzIPx0ev-54" value="+ index: Long&#xa;+ id: String&#xa;+ name: &quot;String&#xa;+ unit: &quot;String&#xa;+ quantity: Long&#xa;+ unitPrice: Double&#xa;+ addition: Double&#xa;+ price: Double" style="text;strokeColor=none;fillColor=none;align=left;verticalAlign=middle;spacingLeft=4;spacingRight=4;overflow=hidden;rotatable=0;points=[[0,0.5],[1,0.5]];portConstraint=eastwest;strokeWidth=1;spacing=2;spacingBottom=0;spacingTop=0;horizontal=1;" parent="MhJyDKK-E_zmOzIPx0ev-53" vertex="1">
          <mxGeometry y="26" width="210" height="114" as="geometry" />
        </mxCell>
        <mxCell id="MhJyDKK-E_zmOzIPx0ev-55" value="" style="line;strokeWidth=1;fillColor=none;align=left;verticalAlign=middle;spacingTop=-1;spacingLeft=3;spacingRight=3;rotatable=0;labelPosition=right;points=[];portConstraint=eastwest;strokeColor=inherit;" parent="MhJyDKK-E_zmOzIPx0ev-53" vertex="1">
          <mxGeometry y="140" width="210" height="10" as="geometry" />
        </mxCell>
        <mxCell id="MhJyDKK-E_zmOzIPx0ev-56" value="+ method(type): type" style="text;strokeColor=none;fillColor=none;align=left;verticalAlign=top;spacingLeft=4;spacingRight=4;overflow=hidden;rotatable=0;points=[[0,0.5],[1,0.5]];portConstraint=eastwest;" parent="MhJyDKK-E_zmOzIPx0ev-53" vertex="1">
          <mxGeometry y="150" width="210" height="26" as="geometry" />
        </mxCell>
        <mxCell id="MhJyDKK-E_zmOzIPx0ev-63" value="" style="endArrow=open;html=1;endSize=12;startArrow=none;startSize=14;startFill=0;edgeStyle=orthogonalEdgeStyle;rounded=0;exitX=0;exitY=0.5;exitDx=0;exitDy=0;" parent="WIyWlLk6GJQsqaUBKTNV-1" source="MhJyDKK-E_zmOzIPx0ev-48" edge="1">
          <mxGeometry relative="1" as="geometry">
            <mxPoint x="-370" y="143" as="sourcePoint" />
            <mxPoint x="-460" y="148" as="targetPoint" />
            <Array as="points">
              <mxPoint x="-460" y="148" />
            </Array>
          </mxGeometry>
        </mxCell>
        <mxCell id="MhJyDKK-E_zmOzIPx0ev-64" value="0...n" style="edgeLabel;resizable=0;html=1;align=right;verticalAlign=top;strokeWidth=1;" parent="MhJyDKK-E_zmOzIPx0ev-63" connectable="0" vertex="1">
          <mxGeometry x="1" relative="1" as="geometry">
            <mxPoint x="31" y="5" as="offset" />
          </mxGeometry>
        </mxCell>
        <mxCell id="MhJyDKK-E_zmOzIPx0ev-65" value="Pooling" style="swimlane;fontStyle=1;align=center;verticalAlign=top;childLayout=stackLayout;horizontal=1;startSize=26;horizontalStack=0;resizeParent=1;resizeParentMax=0;resizeLast=0;collapsible=1;marginBottom=0;fillColor=#d5e8d4;strokeColor=#82b366;" parent="WIyWlLk6GJQsqaUBKTNV-1" vertex="1">
          <mxGeometry x="20" y="-250" width="210" height="146" as="geometry" />
        </mxCell>
        <mxCell id="MhJyDKK-E_zmOzIPx0ev-66" value="+ id: Long&#xa;+ code: String&#xa;+ fullCode: String&#xa;+ orderId: String&#xa;+ merchantId: Date&#xa;+ createdAt: Date" style="text;strokeColor=none;fillColor=none;align=left;verticalAlign=middle;spacingLeft=4;spacingRight=4;overflow=hidden;rotatable=0;points=[[0,0.5],[1,0.5]];portConstraint=eastwest;strokeWidth=1;spacing=2;spacingBottom=0;spacingTop=0;horizontal=1;" parent="MhJyDKK-E_zmOzIPx0ev-65" vertex="1">
          <mxGeometry y="26" width="210" height="84" as="geometry" />
        </mxCell>
        <mxCell id="MhJyDKK-E_zmOzIPx0ev-67" value="" style="line;strokeWidth=1;fillColor=none;align=left;verticalAlign=middle;spacingTop=-1;spacingLeft=3;spacingRight=3;rotatable=0;labelPosition=right;points=[];portConstraint=eastwest;strokeColor=inherit;" parent="MhJyDKK-E_zmOzIPx0ev-65" vertex="1">
          <mxGeometry y="110" width="210" height="10" as="geometry" />
        </mxCell>
        <mxCell id="MhJyDKK-E_zmOzIPx0ev-68" value="+ method(type): type" style="text;strokeColor=none;fillColor=none;align=left;verticalAlign=top;spacingLeft=4;spacingRight=4;overflow=hidden;rotatable=0;points=[[0,0.5],[1,0.5]];portConstraint=eastwest;" parent="MhJyDKK-E_zmOzIPx0ev-65" vertex="1">
          <mxGeometry y="120" width="210" height="26" as="geometry" />
        </mxCell>
        <mxCell id="MhJyDKK-E_zmOzIPx0ev-70" value="1" style="edgeLabel;resizable=0;html=1;align=right;verticalAlign=top;strokeWidth=1;" parent="WIyWlLk6GJQsqaUBKTNV-1" connectable="0" vertex="1">
          <mxGeometry x="149.99580743446498" y="19.99836790209602" as="geometry">
            <mxPoint x="-17" y="2" as="offset" />
          </mxGeometry>
        </mxCell>
        <mxCell id="MhJyDKK-E_zmOzIPx0ev-74" value="n" style="edgeLabel;resizable=0;html=1;align=right;verticalAlign=top;strokeWidth=1;" parent="WIyWlLk6GJQsqaUBKTNV-1" connectable="0" vertex="1">
          <mxGeometry x="159.99580743446498" y="-100.00163209790398" as="geometry">
            <mxPoint x="-22" y="-2" as="offset" />
          </mxGeometry>
        </mxCell>
      </root>
    </mxGraphModel>
  </diagram>
</mxfile>
